<mxfile host="app.diagrams.net" modified="2023-07-30T23:15:33.081Z" agent="Mozilla/5.0 (Windows NT 10.0; Win64; x64) AppleWebKit/537.36 (KHTML, like Gecko) Chrome/115.0.0.0 Safari/537.36" version="21.6.6" etag="oq3w3Vwa8TqrRjfaghP7" type="github">
  <diagram name="Page-1" id="byU7topS99mr_FfxvGcA">
    <mxGraphModel>
      <root>
        <mxCell id="0" />
        <mxCell id="1" parent="0" />
      </root>
    </mxGraphModel>
  </diagram>
</mxfile>
